HIERARCHY
ROOT Hips
{
    OFFSET 0 0 0
    CHANNELS 6 Xposition Yposition Zposition Zrotation Xrotation Yrotation 
    JOINT LeftHip
    {
        OFFSET 3.3 0 0
        CHANNELS 3 Zrotation Xrotation Yrotation 
        JOINT LeftKnee
        {
            OFFSET 0 -17.8 0
            CHANNELS 1 Xrotation 
            End Site
            {
                OFFSET 0 -16.03 0
            }
        }
    }
    JOINT RightHip
    {
        OFFSET -3.3 0 0
        CHANNELS 3 Zrotation Xrotation Yrotation 
        JOINT RightKnee
        {
            OFFSET 0 -17.7 0
            CHANNELS 1 Xrotation 
            End Site
            {
                OFFSET 0 -16.1 0
            }
        }
    }
    JOINT Chest
    {
        OFFSET 0 4.41 0
        CHANNELS 3 Zrotation Xrotation Yrotation 
        JOINT Neck
        {
            OFFSET 0 16.76 0
            CHANNELS 2 Zrotation Xrotation 
            JOINT Head
            {
                OFFSET 0 4.4 0
                CHANNELS 3 Zrotation Xrotation Yrotation 
                End Site
                {
                    OFFSET 0 3.31 0
                }
            }
        }
        JOINT LeftCollar
        {
            OFFSET 1.01 14.58 1.68
            CHANNELS 2 Zrotation Yrotation 
            JOINT LeftShoulder
            {
                OFFSET 5.89 0 0
                CHANNELS 3 Zrotation Xrotation Yrotation 
                JOINT LeftElbow
                {
                    OFFSET 0 -11.63 0
                    CHANNELS 1 Xrotation 
                    End Site
                    {
                        OFFSET 0 -9.24 0
                    }
                }
            }
        }
        JOINT RightCollar
        {
            OFFSET -1.01 14.58 1.68
            CHANNELS 2 Zrotation Yrotation 
            JOINT RightShoulder
            {
                OFFSET -6.39 0 0
                CHANNELS 3 Zrotation Xrotation Yrotation 
                JOINT RightElbow
                {
                    OFFSET 0 -11.08 0
                    CHANNELS 1 Xrotation 
                    End Site
                    {
                        OFFSET 0 -9.13 0
                    }
                }
            }
        }
    }
}
MOTION
Frames:  24
Frame Time: 0.033333
0.242672	29.4528	0.912088	1.36119	-5.68294	-0.362575	-5.90143	-1.82622	-6.44599	9.92438	0.00832795	-11.9094	-1.41638	59.3869	-2.8103	4.05911	3.85031	2.13833	35.6415	-3.84625	-37.0898	0	-16.2893	25.6617	30.0385	-16.2592	-55.4627	-17.9739	22.2157	-23.0233	-42.812	-7.63492	69.4687	-35.8448	
0.274165	29.5222	2.03527	0.779779	-5.95188	0.0383978	-5.14269	1.45127	-4.02577	8.82064	0.610424	-14.166	-1.62214	56.0003	-2.13857	4.49313	2.10483	3.03308	36.8274	-4.43434	-36.1306	0	-15.4993	24.8381	28.1052	-21.2521	-53.4299	-19.1667	22.0946	-22.9878	-43.6796	-5.19234	73.9161	-34.4985	
0.294877	29.5509	3.30776	0.450316	-6.55395	1.18116	-4.14224	6.72075	6.14837	5.07792	1.17381	-18.4956	-2.40964	48.2721	-1.687	5.14214	-0.136659	4.76847	39.0585	-5.70097	-35.2203	0	-14.919	23.8076	27.1531	-25.9191	-49.0462	-22.25	21.9997	-22.8773	-44.5126	-2.62622	78.2458	-31.8301	
0.336524	29.4623	5.11358	0.976278	-5.73422	3.75323	-3.82214	10.4307	18.1984	4.21696	0.250606	-21.9246	-3.85573	39.2506	-1.85505	5.15733	-3.07342	6.21112	40.6727	-6.95496	-36.4436	0	-14.5457	22.6503	26.8187	-30.5028	-45.3292	-26.3253	22.5943	-23.1727	-45.9354	-0.352487	82.1557	-29.5403	
0.361337	29.0566	7.38448	2.04898	-4.26452	6.21713	-3.69445	13.2829	19.1021	6.29612	-1.71526	-24.4852	-5.23996	29.3224	-2.44946	4.74966	-5.41401	7.52078	41.4659	-7.75116	-38.015	0	-14.2628	21.7276	26.6205	-34.7272	-43.376	-29.7928	23.639	-23.5887	-47.7115	1.59058	87.0126	-27.7402	
0.318289	28.1358	10.0292	3.09492	-3.96377	7.55133	-3.269	16.8131	12.4628	11.6771	-3.86488	-26.768	-5.48037	18.1674	-3.14854	4.8916	-6.28255	9.02564	41.6027	-7.81517	-37.6275	0	-13.7595	21.2471	26.2899	-38.0043	-42.4999	-31.3607	24.62	-23.7155	-49.1554	3.29924	95.4066	-26.1751	
0.251204	26.8019	12.8692	4.15721	-4.77969	9.33783	-2.76131	19.3922	3.95888	22.8305	-6.11342	-28.4194	-2.68183	5.85325	-3.87488	5.6154	-6.9413	10.0968	41.044	-7.37927	-35.7332	0	-13.0312	21.2106	25.682	-39.9448	-42.3684	-32.2314	25.4306	-23.696	-50.2145	5.44113	104.237	-24.9589	
0.18235	25.4955	15.2343	4.51023	-5.24191	12.224	-2.39715	19.2669	-4.61315	36.3166	-7.70663	-28.6757	3.99399	-3.74813	-4.20936	5.83951	-8.19273	10.0235	39.8443	-6.79312	-33.5743	0	-12.663	21.3594	25.252	-40.6089	-42.5336	-34.1016	25.9758	-23.6315	-50.9864	7.37487	109.458	-24.2859	
0.0685332	26.4067	16.6129	3.30366	-5.80677	13.1424	-2.42108	14.4523	-10.2317	42.9236	-5.60977	-26.3192	8.11322	0.0539084	-3.61356	5.2722	-9.15263	9.28863	38.8852	-6.17743	-31.979	0	-12.9216	21.654	25.3817	-40.1554	-42.2112	-37.0822	26.018	-23.5418	-51.5122	8.9488	107.747	-24.1216	
-0.0327292	27.4895	18.6234	2.25402	-6.88285	13.4796	-2.70007	8.73494	-11.213	48.2378	-2.59425	-22.7316	9.41667	5.07991	-2.54488	4.58864	-9.31825	8.64598	39.071	-5.57285	-31.474	0	-13.2709	22.1179	25.9208	-38.4312	-41.4528	-40.6409	25.9049	-23.5856	-51.8306	9.87988	103.604	-24.3449	
-0.115332	28.3811	20.9561	1.26034	-7.97134	12.9486	-2.43827	4.15859	-9.23338	53.1184	0.439884	-19.3279	6.68854	11.0762	-1.25678	3.90015	-8.69579	7.94979	39.5455	-4.9916	-31.4883	0	-13.6732	22.6139	26.7434	-35.5617	-41.151	-43.5703	25.5925	-23.5118	-51.5792	9.82385	103.131	-24.6978	
-0.13794	28.8898	23.0136	-0.123574	-8.22972	11.1466	-1.15679	1.00391	-6.3853	56.9524	3.10331	-17.3268	3.84132	16.4227	0.643254	3.25816	-7.139	6.8504	39.0543	-4.44989	-31.2113	0	-14.3308	23.0361	27.5366	-32.1006	-41.1334	-44.7161	24.7888	-23.2479	-50.6389	8.81268	98.795	-24.9079	
-0.126258	29.1482	24.7249	-1.50246	-7.88818	9.29173	0.442739	-1.46412	-4.11159	59.7089	5.15783	-15.7362	2.20226	19.9308	2.55813	2.84985	-5.21751	5.96524	38.1636	-4.04444	-30.9873	0	-14.8668	23.3672	27.6786	-28.5821	-40.456	-45.0103	23.9537	-23.1862	-48.8669	7.13009	85.0928	-24.8887	
-0.146019	29.3793	26.2206	-2.21478	-7.6769	8.85594	1.49003	-3.91431	-3.47127	61.3662	6.45188	-13.1526	2.14583	21.0479	3.37777	2.83807	-3.86242	6.14633	38.023	-3.88312	-31.485	0	-14.8055	23.4926	27.2721	-24.9589	-39.3098	-45.9547	23.5547	-23.4604	-46.4676	4.02854	71.5863	-24.6653	
-0.178415	29.5924	27.6155	-2.22762	-7.74249	9.18437	1.76808	-6.67577	-3.74619	61.7523	7.10238	-9.83125	2.4364	20.9118	3.26629	3.13368	-2.8381	6.8544	38.2719	-3.89071	-32.0496	0	-14.5533	23.5826	26.8717	-21.5654	-39.9993	-46.5484	23.5515	-23.5559	-44.388	0.302967	62.4181	-24.5131	
-0.186759	29.7459	28.9353	-1.78181	-7.72051	8.92485	1.32846	-10.0062	-3.5228	60.6029	7.18398	-6.74365	2.54595	20.8159	2.72164	3.53864	-1.42355	7.00965	37.964	-3.912	-31.5499	0	-14.5154	23.6847	26.9843	-18.712	-42.1976	-44.6891	23.338	-23.1285	-42.2857	-3.60887	52.833	-24.7283	
-0.163747	29.7915	30.2588	-1.14423	-7.67947	7.83026	0.464463	-13.4826	-2.79908	57.679	6.81817	-3.98101	1.94161	21.4999	2.05595	4.03383	0.654049	6.55577	37.2835	-3.84748	-30.1582	0	-14.7733	23.5727	27.5877	-16.0039	-44.9984	-38.9754	22.7403	-22.5551	-40.212	-7.91874	42.5929	-24.7513	
-0.105304	29.7104	31.6634	-0.623973	-7.81684	6.51306	-0.403323	-16.3804	-2.24835	52.7516	6.14898	-1.15864	0.213209	22.8434	1.58063	4.63431	3.13145	5.92421	36.9394	-3.63608	-28.6877	0	-15.3165	23.1702	28.9062	-12.5495	-50.613	-28.921	22.1485	-22.3994	-38.6341	-12.7344	33.8625	-23.8042	
-0.029317	29.543	33.074	-0.385717	-8.13769	5.23525	-0.835341	-18.5059	-1.91703	45.5513	5.5321	1.50543	-1.67986	24.8739	1.54066	5.27707	5.15649	5.07232	36.9805	-3.3085	-27.5464	0	-15.9483	22.9945	31.148	-8.05196	-57.0738	-19.5034	21.6294	-22.347	-37.6247	-17.5806	28.4545	-23.3875	
0.0697449	29.3006	34.4537	-0.728212	-8.18446	3.20951	-0.355537	-20.1369	-1.55106	35.8647	5.39983	3.53779	-1.75523	27.4282	2.23091	5.64873	6.76377	3.74184	37.1007	-2.95807	-26.9066	0	-16.6901	23.3663	33.2384	-3.67325	-59.5535	-18.0139	21.2001	-21.8693	-37.2062	-21.8486	28.9553	-26.0283	
0.204011	28.7437	36.3011	-1.56934	-7.50034	0.543405	1.14817	-22.2288	-1.64328	24.7893	5.64246	5.79893	-0.228215	30.6626	3.22462	5.37141	8.43635	2.3535	37.3101	-2.79203	-26.9525	0	-17.2556	23.9926	34.9708	1.11358	-66.4326	-22.3508	21.0056	-21.1543	-37.2919	-25.4629	31.2307	-31.0042	
0.38284	27.6549	39.0462	-2.43971	-6.57472	-1.35267	3.16418	-25.4912	-3.0351	14.5134	5.80199	9.95069	0.908095	34.5894	4.00335	4.91517	9.5846	1.69892	37.7995	-3.06292	-27.8385	0	-17.4301	24.6147	36.1753	5.86687	-65.6087	-24.922	21.0665	-20.9256	-37.5002	-28.5162	31.5733	-35.6607	
0.585962	26.3199	41.8833	-2.97971	-5.90188	-2.46339	4.62873	-28.9867	-5.29905	6.99625	5.4267	15.391	1.53048	37.3306	4.42257	4.63887	9.97845	1.76826	38.4659	-3.67889	-29.2163	0	-17.3516	25.3074	37.3747	10.0051	-65.0388	-24.499	21.1845	-21.0807	-37.628	-30.7024	30.233	-39.139	
0.749346	24.9699	44.0685	-3.32557	-5.52028	-3.99624	5.20953	-32.018	-8.03129	1.34924	4.36687	20.6795	2.35165	38.2922	4.6516	4.3524	10.147	2.02051	39.0122	-4.31963	-30.4153	0	-17.1208	26.1235	38.5816	13.3004	-66.174	-24.2012	21.0925	-21.2115	-37.5887	-31.7217	29.5774	-41.8425	
